%TF.GenerationSoftware,KiCad,Pcbnew,(5.1.7)-1*%
%TF.CreationDate,2021-04-19T22:56:07+02:00*%
%TF.ProjectId,TMA,544d412e-6b69-4636-9164-5f7063625858,rev?*%
%TF.SameCoordinates,Original*%
%TF.FileFunction,Soldermask,Top*%
%TF.FilePolarity,Negative*%
%FSLAX46Y46*%
G04 Gerber Fmt 4.6, Leading zero omitted, Abs format (unit mm)*
G04 Created by KiCad (PCBNEW (5.1.7)-1) date 2021-04-19 22:56:07*
%MOMM*%
%LPD*%
G01*
G04 APERTURE LIST*
%ADD10R,1.060000X0.650000*%
%ADD11R,0.250000X0.675000*%
%ADD12R,0.675000X0.250000*%
%ADD13R,0.350000X0.500000*%
G04 APERTURE END LIST*
D10*
%TO.C,U4*%
X73576000Y-44130000D03*
X73576000Y-42230000D03*
X75776000Y-42230000D03*
X75776000Y-43180000D03*
X75776000Y-44130000D03*
%TD*%
%TO.C,U3*%
G36*
G01*
X72874000Y-46378000D02*
X72874000Y-46078000D01*
G75*
G02*
X73024000Y-45928000I150000J0D01*
G01*
X74674000Y-45928000D01*
G75*
G02*
X74824000Y-46078000I0J-150000D01*
G01*
X74824000Y-46378000D01*
G75*
G02*
X74674000Y-46528000I-150000J0D01*
G01*
X73024000Y-46528000D01*
G75*
G02*
X72874000Y-46378000I0J150000D01*
G01*
G37*
G36*
G01*
X72874000Y-47648000D02*
X72874000Y-47348000D01*
G75*
G02*
X73024000Y-47198000I150000J0D01*
G01*
X74674000Y-47198000D01*
G75*
G02*
X74824000Y-47348000I0J-150000D01*
G01*
X74824000Y-47648000D01*
G75*
G02*
X74674000Y-47798000I-150000J0D01*
G01*
X73024000Y-47798000D01*
G75*
G02*
X72874000Y-47648000I0J150000D01*
G01*
G37*
G36*
G01*
X72874000Y-48918000D02*
X72874000Y-48618000D01*
G75*
G02*
X73024000Y-48468000I150000J0D01*
G01*
X74674000Y-48468000D01*
G75*
G02*
X74824000Y-48618000I0J-150000D01*
G01*
X74824000Y-48918000D01*
G75*
G02*
X74674000Y-49068000I-150000J0D01*
G01*
X73024000Y-49068000D01*
G75*
G02*
X72874000Y-48918000I0J150000D01*
G01*
G37*
G36*
G01*
X72874000Y-50188000D02*
X72874000Y-49888000D01*
G75*
G02*
X73024000Y-49738000I150000J0D01*
G01*
X74674000Y-49738000D01*
G75*
G02*
X74824000Y-49888000I0J-150000D01*
G01*
X74824000Y-50188000D01*
G75*
G02*
X74674000Y-50338000I-150000J0D01*
G01*
X73024000Y-50338000D01*
G75*
G02*
X72874000Y-50188000I0J150000D01*
G01*
G37*
G36*
G01*
X72874000Y-51458000D02*
X72874000Y-51158000D01*
G75*
G02*
X73024000Y-51008000I150000J0D01*
G01*
X74674000Y-51008000D01*
G75*
G02*
X74824000Y-51158000I0J-150000D01*
G01*
X74824000Y-51458000D01*
G75*
G02*
X74674000Y-51608000I-150000J0D01*
G01*
X73024000Y-51608000D01*
G75*
G02*
X72874000Y-51458000I0J150000D01*
G01*
G37*
G36*
G01*
X72874000Y-52728000D02*
X72874000Y-52428000D01*
G75*
G02*
X73024000Y-52278000I150000J0D01*
G01*
X74674000Y-52278000D01*
G75*
G02*
X74824000Y-52428000I0J-150000D01*
G01*
X74824000Y-52728000D01*
G75*
G02*
X74674000Y-52878000I-150000J0D01*
G01*
X73024000Y-52878000D01*
G75*
G02*
X72874000Y-52728000I0J150000D01*
G01*
G37*
G36*
G01*
X72874000Y-53998000D02*
X72874000Y-53698000D01*
G75*
G02*
X73024000Y-53548000I150000J0D01*
G01*
X74674000Y-53548000D01*
G75*
G02*
X74824000Y-53698000I0J-150000D01*
G01*
X74824000Y-53998000D01*
G75*
G02*
X74674000Y-54148000I-150000J0D01*
G01*
X73024000Y-54148000D01*
G75*
G02*
X72874000Y-53998000I0J150000D01*
G01*
G37*
G36*
G01*
X67924000Y-53998000D02*
X67924000Y-53698000D01*
G75*
G02*
X68074000Y-53548000I150000J0D01*
G01*
X69724000Y-53548000D01*
G75*
G02*
X69874000Y-53698000I0J-150000D01*
G01*
X69874000Y-53998000D01*
G75*
G02*
X69724000Y-54148000I-150000J0D01*
G01*
X68074000Y-54148000D01*
G75*
G02*
X67924000Y-53998000I0J150000D01*
G01*
G37*
G36*
G01*
X67924000Y-52728000D02*
X67924000Y-52428000D01*
G75*
G02*
X68074000Y-52278000I150000J0D01*
G01*
X69724000Y-52278000D01*
G75*
G02*
X69874000Y-52428000I0J-150000D01*
G01*
X69874000Y-52728000D01*
G75*
G02*
X69724000Y-52878000I-150000J0D01*
G01*
X68074000Y-52878000D01*
G75*
G02*
X67924000Y-52728000I0J150000D01*
G01*
G37*
G36*
G01*
X67924000Y-51458000D02*
X67924000Y-51158000D01*
G75*
G02*
X68074000Y-51008000I150000J0D01*
G01*
X69724000Y-51008000D01*
G75*
G02*
X69874000Y-51158000I0J-150000D01*
G01*
X69874000Y-51458000D01*
G75*
G02*
X69724000Y-51608000I-150000J0D01*
G01*
X68074000Y-51608000D01*
G75*
G02*
X67924000Y-51458000I0J150000D01*
G01*
G37*
G36*
G01*
X67924000Y-50188000D02*
X67924000Y-49888000D01*
G75*
G02*
X68074000Y-49738000I150000J0D01*
G01*
X69724000Y-49738000D01*
G75*
G02*
X69874000Y-49888000I0J-150000D01*
G01*
X69874000Y-50188000D01*
G75*
G02*
X69724000Y-50338000I-150000J0D01*
G01*
X68074000Y-50338000D01*
G75*
G02*
X67924000Y-50188000I0J150000D01*
G01*
G37*
G36*
G01*
X67924000Y-48918000D02*
X67924000Y-48618000D01*
G75*
G02*
X68074000Y-48468000I150000J0D01*
G01*
X69724000Y-48468000D01*
G75*
G02*
X69874000Y-48618000I0J-150000D01*
G01*
X69874000Y-48918000D01*
G75*
G02*
X69724000Y-49068000I-150000J0D01*
G01*
X68074000Y-49068000D01*
G75*
G02*
X67924000Y-48918000I0J150000D01*
G01*
G37*
G36*
G01*
X67924000Y-47648000D02*
X67924000Y-47348000D01*
G75*
G02*
X68074000Y-47198000I150000J0D01*
G01*
X69724000Y-47198000D01*
G75*
G02*
X69874000Y-47348000I0J-150000D01*
G01*
X69874000Y-47648000D01*
G75*
G02*
X69724000Y-47798000I-150000J0D01*
G01*
X68074000Y-47798000D01*
G75*
G02*
X67924000Y-47648000I0J150000D01*
G01*
G37*
G36*
G01*
X67924000Y-46378000D02*
X67924000Y-46078000D01*
G75*
G02*
X68074000Y-45928000I150000J0D01*
G01*
X69724000Y-45928000D01*
G75*
G02*
X69874000Y-46078000I0J-150000D01*
G01*
X69874000Y-46378000D01*
G75*
G02*
X69724000Y-46528000I-150000J0D01*
G01*
X68074000Y-46528000D01*
G75*
G02*
X67924000Y-46378000I0J150000D01*
G01*
G37*
%TD*%
D11*
%TO.C,U2*%
X79514000Y-46235500D03*
X80014000Y-46235500D03*
X80514000Y-46235500D03*
X81014000Y-46235500D03*
X81014000Y-48760500D03*
X80514000Y-48760500D03*
X80014000Y-48760500D03*
X79514000Y-48760500D03*
D12*
X81276500Y-46998000D03*
X81276500Y-47498000D03*
X81276500Y-47998000D03*
X79251500Y-46998000D03*
X79251500Y-47998000D03*
X79251500Y-47498000D03*
%TD*%
D13*
%TO.C,U1*%
X78781000Y-53886000D03*
X79431000Y-52286000D03*
X80081000Y-52286000D03*
X80731000Y-52286000D03*
X79431000Y-53886000D03*
X80081000Y-53886000D03*
X80731000Y-53886000D03*
X78781000Y-52286000D03*
%TD*%
%TO.C,R5*%
G36*
G01*
X75960000Y-49853000D02*
X75960000Y-50223000D01*
G75*
G02*
X75825000Y-50358000I-135000J0D01*
G01*
X75555000Y-50358000D01*
G75*
G02*
X75420000Y-50223000I0J135000D01*
G01*
X75420000Y-49853000D01*
G75*
G02*
X75555000Y-49718000I135000J0D01*
G01*
X75825000Y-49718000D01*
G75*
G02*
X75960000Y-49853000I0J-135000D01*
G01*
G37*
G36*
G01*
X76980000Y-49853000D02*
X76980000Y-50223000D01*
G75*
G02*
X76845000Y-50358000I-135000J0D01*
G01*
X76575000Y-50358000D01*
G75*
G02*
X76440000Y-50223000I0J135000D01*
G01*
X76440000Y-49853000D01*
G75*
G02*
X76575000Y-49718000I135000J0D01*
G01*
X76845000Y-49718000D01*
G75*
G02*
X76980000Y-49853000I0J-135000D01*
G01*
G37*
%TD*%
%TO.C,R4*%
G36*
G01*
X75960000Y-48583000D02*
X75960000Y-48953000D01*
G75*
G02*
X75825000Y-49088000I-135000J0D01*
G01*
X75555000Y-49088000D01*
G75*
G02*
X75420000Y-48953000I0J135000D01*
G01*
X75420000Y-48583000D01*
G75*
G02*
X75555000Y-48448000I135000J0D01*
G01*
X75825000Y-48448000D01*
G75*
G02*
X75960000Y-48583000I0J-135000D01*
G01*
G37*
G36*
G01*
X76980000Y-48583000D02*
X76980000Y-48953000D01*
G75*
G02*
X76845000Y-49088000I-135000J0D01*
G01*
X76575000Y-49088000D01*
G75*
G02*
X76440000Y-48953000I0J135000D01*
G01*
X76440000Y-48583000D01*
G75*
G02*
X76575000Y-48448000I135000J0D01*
G01*
X76845000Y-48448000D01*
G75*
G02*
X76980000Y-48583000I0J-135000D01*
G01*
G37*
%TD*%
%TO.C,R3*%
G36*
G01*
X77202000Y-56827000D02*
X77202000Y-56457000D01*
G75*
G02*
X77337000Y-56322000I135000J0D01*
G01*
X77607000Y-56322000D01*
G75*
G02*
X77742000Y-56457000I0J-135000D01*
G01*
X77742000Y-56827000D01*
G75*
G02*
X77607000Y-56962000I-135000J0D01*
G01*
X77337000Y-56962000D01*
G75*
G02*
X77202000Y-56827000I0J135000D01*
G01*
G37*
G36*
G01*
X76182000Y-56827000D02*
X76182000Y-56457000D01*
G75*
G02*
X76317000Y-56322000I135000J0D01*
G01*
X76587000Y-56322000D01*
G75*
G02*
X76722000Y-56457000I0J-135000D01*
G01*
X76722000Y-56827000D01*
G75*
G02*
X76587000Y-56962000I-135000J0D01*
G01*
X76317000Y-56962000D01*
G75*
G02*
X76182000Y-56827000I0J135000D01*
G01*
G37*
%TD*%
%TO.C,R2*%
G36*
G01*
X72912000Y-56457000D02*
X72912000Y-56827000D01*
G75*
G02*
X72777000Y-56962000I-135000J0D01*
G01*
X72507000Y-56962000D01*
G75*
G02*
X72372000Y-56827000I0J135000D01*
G01*
X72372000Y-56457000D01*
G75*
G02*
X72507000Y-56322000I135000J0D01*
G01*
X72777000Y-56322000D01*
G75*
G02*
X72912000Y-56457000I0J-135000D01*
G01*
G37*
G36*
G01*
X73932000Y-56457000D02*
X73932000Y-56827000D01*
G75*
G02*
X73797000Y-56962000I-135000J0D01*
G01*
X73527000Y-56962000D01*
G75*
G02*
X73392000Y-56827000I0J135000D01*
G01*
X73392000Y-56457000D01*
G75*
G02*
X73527000Y-56322000I135000J0D01*
G01*
X73797000Y-56322000D01*
G75*
G02*
X73932000Y-56457000I0J-135000D01*
G01*
G37*
%TD*%
%TO.C,R1*%
G36*
G01*
X77350200Y-53608000D02*
X76980200Y-53608000D01*
G75*
G02*
X76845200Y-53473000I0J135000D01*
G01*
X76845200Y-53203000D01*
G75*
G02*
X76980200Y-53068000I135000J0D01*
G01*
X77350200Y-53068000D01*
G75*
G02*
X77485200Y-53203000I0J-135000D01*
G01*
X77485200Y-53473000D01*
G75*
G02*
X77350200Y-53608000I-135000J0D01*
G01*
G37*
G36*
G01*
X77350200Y-54628000D02*
X76980200Y-54628000D01*
G75*
G02*
X76845200Y-54493000I0J135000D01*
G01*
X76845200Y-54223000D01*
G75*
G02*
X76980200Y-54088000I135000J0D01*
G01*
X77350200Y-54088000D01*
G75*
G02*
X77485200Y-54223000I0J-135000D01*
G01*
X77485200Y-54493000D01*
G75*
G02*
X77350200Y-54628000I-135000J0D01*
G01*
G37*
%TD*%
%TO.C,D4*%
G36*
G01*
X78658500Y-55944000D02*
X78313500Y-55944000D01*
G75*
G02*
X78166000Y-55796500I0J147500D01*
G01*
X78166000Y-55501500D01*
G75*
G02*
X78313500Y-55354000I147500J0D01*
G01*
X78658500Y-55354000D01*
G75*
G02*
X78806000Y-55501500I0J-147500D01*
G01*
X78806000Y-55796500D01*
G75*
G02*
X78658500Y-55944000I-147500J0D01*
G01*
G37*
G36*
G01*
X78658500Y-56914000D02*
X78313500Y-56914000D01*
G75*
G02*
X78166000Y-56766500I0J147500D01*
G01*
X78166000Y-56471500D01*
G75*
G02*
X78313500Y-56324000I147500J0D01*
G01*
X78658500Y-56324000D01*
G75*
G02*
X78806000Y-56471500I0J-147500D01*
G01*
X78806000Y-56766500D01*
G75*
G02*
X78658500Y-56914000I-147500J0D01*
G01*
G37*
%TD*%
%TO.C,D3*%
G36*
G01*
X71800500Y-55944000D02*
X71455500Y-55944000D01*
G75*
G02*
X71308000Y-55796500I0J147500D01*
G01*
X71308000Y-55501500D01*
G75*
G02*
X71455500Y-55354000I147500J0D01*
G01*
X71800500Y-55354000D01*
G75*
G02*
X71948000Y-55501500I0J-147500D01*
G01*
X71948000Y-55796500D01*
G75*
G02*
X71800500Y-55944000I-147500J0D01*
G01*
G37*
G36*
G01*
X71800500Y-56914000D02*
X71455500Y-56914000D01*
G75*
G02*
X71308000Y-56766500I0J147500D01*
G01*
X71308000Y-56471500D01*
G75*
G02*
X71455500Y-56324000I147500J0D01*
G01*
X71800500Y-56324000D01*
G75*
G02*
X71948000Y-56471500I0J-147500D01*
G01*
X71948000Y-56766500D01*
G75*
G02*
X71800500Y-56914000I-147500J0D01*
G01*
G37*
%TD*%
%TO.C,C7*%
G36*
G01*
X71712000Y-44650000D02*
X72052000Y-44650000D01*
G75*
G02*
X72192000Y-44790000I0J-140000D01*
G01*
X72192000Y-45070000D01*
G75*
G02*
X72052000Y-45210000I-140000J0D01*
G01*
X71712000Y-45210000D01*
G75*
G02*
X71572000Y-45070000I0J140000D01*
G01*
X71572000Y-44790000D01*
G75*
G02*
X71712000Y-44650000I140000J0D01*
G01*
G37*
G36*
G01*
X71712000Y-43690000D02*
X72052000Y-43690000D01*
G75*
G02*
X72192000Y-43830000I0J-140000D01*
G01*
X72192000Y-44110000D01*
G75*
G02*
X72052000Y-44250000I-140000J0D01*
G01*
X71712000Y-44250000D01*
G75*
G02*
X71572000Y-44110000I0J140000D01*
G01*
X71572000Y-43830000D01*
G75*
G02*
X71712000Y-43690000I140000J0D01*
G01*
G37*
%TD*%
%TO.C,C6*%
G36*
G01*
X70696000Y-44650000D02*
X71036000Y-44650000D01*
G75*
G02*
X71176000Y-44790000I0J-140000D01*
G01*
X71176000Y-45070000D01*
G75*
G02*
X71036000Y-45210000I-140000J0D01*
G01*
X70696000Y-45210000D01*
G75*
G02*
X70556000Y-45070000I0J140000D01*
G01*
X70556000Y-44790000D01*
G75*
G02*
X70696000Y-44650000I140000J0D01*
G01*
G37*
G36*
G01*
X70696000Y-43690000D02*
X71036000Y-43690000D01*
G75*
G02*
X71176000Y-43830000I0J-140000D01*
G01*
X71176000Y-44110000D01*
G75*
G02*
X71036000Y-44250000I-140000J0D01*
G01*
X70696000Y-44250000D01*
G75*
G02*
X70556000Y-44110000I0J140000D01*
G01*
X70556000Y-43830000D01*
G75*
G02*
X70696000Y-43690000I140000J0D01*
G01*
G37*
%TD*%
%TO.C,C5*%
G36*
G01*
X77924000Y-42588000D02*
X77924000Y-42248000D01*
G75*
G02*
X78064000Y-42108000I140000J0D01*
G01*
X78344000Y-42108000D01*
G75*
G02*
X78484000Y-42248000I0J-140000D01*
G01*
X78484000Y-42588000D01*
G75*
G02*
X78344000Y-42728000I-140000J0D01*
G01*
X78064000Y-42728000D01*
G75*
G02*
X77924000Y-42588000I0J140000D01*
G01*
G37*
G36*
G01*
X76964000Y-42588000D02*
X76964000Y-42248000D01*
G75*
G02*
X77104000Y-42108000I140000J0D01*
G01*
X77384000Y-42108000D01*
G75*
G02*
X77524000Y-42248000I0J-140000D01*
G01*
X77524000Y-42588000D01*
G75*
G02*
X77384000Y-42728000I-140000J0D01*
G01*
X77104000Y-42728000D01*
G75*
G02*
X76964000Y-42588000I0J140000D01*
G01*
G37*
%TD*%
%TO.C,C4*%
G36*
G01*
X77924000Y-44366000D02*
X77924000Y-44026000D01*
G75*
G02*
X78064000Y-43886000I140000J0D01*
G01*
X78344000Y-43886000D01*
G75*
G02*
X78484000Y-44026000I0J-140000D01*
G01*
X78484000Y-44366000D01*
G75*
G02*
X78344000Y-44506000I-140000J0D01*
G01*
X78064000Y-44506000D01*
G75*
G02*
X77924000Y-44366000I0J140000D01*
G01*
G37*
G36*
G01*
X76964000Y-44366000D02*
X76964000Y-44026000D01*
G75*
G02*
X77104000Y-43886000I140000J0D01*
G01*
X77384000Y-43886000D01*
G75*
G02*
X77524000Y-44026000I0J-140000D01*
G01*
X77524000Y-44366000D01*
G75*
G02*
X77384000Y-44506000I-140000J0D01*
G01*
X77104000Y-44506000D01*
G75*
G02*
X76964000Y-44366000I0J140000D01*
G01*
G37*
%TD*%
%TO.C,C3*%
G36*
G01*
X69680000Y-44650000D02*
X70020000Y-44650000D01*
G75*
G02*
X70160000Y-44790000I0J-140000D01*
G01*
X70160000Y-45070000D01*
G75*
G02*
X70020000Y-45210000I-140000J0D01*
G01*
X69680000Y-45210000D01*
G75*
G02*
X69540000Y-45070000I0J140000D01*
G01*
X69540000Y-44790000D01*
G75*
G02*
X69680000Y-44650000I140000J0D01*
G01*
G37*
G36*
G01*
X69680000Y-43690000D02*
X70020000Y-43690000D01*
G75*
G02*
X70160000Y-43830000I0J-140000D01*
G01*
X70160000Y-44110000D01*
G75*
G02*
X70020000Y-44250000I-140000J0D01*
G01*
X69680000Y-44250000D01*
G75*
G02*
X69540000Y-44110000I0J140000D01*
G01*
X69540000Y-43830000D01*
G75*
G02*
X69680000Y-43690000I140000J0D01*
G01*
G37*
%TD*%
%TO.C,C2*%
G36*
G01*
X83228000Y-48822000D02*
X82888000Y-48822000D01*
G75*
G02*
X82748000Y-48682000I0J140000D01*
G01*
X82748000Y-48402000D01*
G75*
G02*
X82888000Y-48262000I140000J0D01*
G01*
X83228000Y-48262000D01*
G75*
G02*
X83368000Y-48402000I0J-140000D01*
G01*
X83368000Y-48682000D01*
G75*
G02*
X83228000Y-48822000I-140000J0D01*
G01*
G37*
G36*
G01*
X83228000Y-49782000D02*
X82888000Y-49782000D01*
G75*
G02*
X82748000Y-49642000I0J140000D01*
G01*
X82748000Y-49362000D01*
G75*
G02*
X82888000Y-49222000I140000J0D01*
G01*
X83228000Y-49222000D01*
G75*
G02*
X83368000Y-49362000I0J-140000D01*
G01*
X83368000Y-49642000D01*
G75*
G02*
X83228000Y-49782000I-140000J0D01*
G01*
G37*
%TD*%
%TO.C,C1*%
G36*
G01*
X78794000Y-50884000D02*
X78794000Y-51224000D01*
G75*
G02*
X78654000Y-51364000I-140000J0D01*
G01*
X78374000Y-51364000D01*
G75*
G02*
X78234000Y-51224000I0J140000D01*
G01*
X78234000Y-50884000D01*
G75*
G02*
X78374000Y-50744000I140000J0D01*
G01*
X78654000Y-50744000D01*
G75*
G02*
X78794000Y-50884000I0J-140000D01*
G01*
G37*
G36*
G01*
X79754000Y-50884000D02*
X79754000Y-51224000D01*
G75*
G02*
X79614000Y-51364000I-140000J0D01*
G01*
X79334000Y-51364000D01*
G75*
G02*
X79194000Y-51224000I0J140000D01*
G01*
X79194000Y-50884000D01*
G75*
G02*
X79334000Y-50744000I140000J0D01*
G01*
X79614000Y-50744000D01*
G75*
G02*
X79754000Y-50884000I0J-140000D01*
G01*
G37*
%TD*%
M02*
